<svg width="345" height="145.6832644205725" viewBox="0 0 345 145.6832644205725" class="css-1j8o68f">
  <defs id="SvgjsDefs1397"></defs>
  <g id="SvgjsG1398" featurekey="v37d4h-0" transform="matrix(2.5036793845121514,0,0,2.5036793845121514,-13.229442861043214,-48.920221303857055)" fill="#11999e">
    <path xmlns="http://www.w3.org/2000/svg" fill="#11999e" d="M66.843,31.367c-0.534-0.224-1.153,0.022-1.382,0.56c-0.227,0.537,0.025,1.155,0.562,1.382  c7.359,3.113,13.035,9.237,15.572,16.803c0.146,0.442,0.558,0.72,0.999,0.72c0.111,0,0.224-0.017,0.336-0.054  c0.552-0.185,0.848-0.783,0.663-1.335C80.866,41.303,74.759,34.715,66.843,31.367z M95.116,47.858  c-3.514-13.195-13.315-23.76-26.218-28.261c-0.55-0.188-1.151,0.098-1.343,0.649c-0.194,0.55,0.097,1.151,0.647,1.343  c12.244,4.27,21.543,14.293,24.875,26.811c0.126,0.473,0.552,0.784,1.02,0.784c0.089,0,0.181-0.011,0.272-0.035  C94.93,48.998,95.266,48.42,95.116,47.858z M55.18,40.225c-1.913,0-3.851,0.32-5.771,0.955c-2.723-5.286-8.179-8.65-14.161-8.65  c-7.865,0-14.456,5.719-15.673,13.443c-8.083,0.836-14.291,7.616-14.291,15.807c0,7.988,5.961,14.675,13.786,15.739l-0.049,0.208  H55.18c10.339,0,18.75-8.411,18.75-18.75C73.929,48.637,65.518,40.225,55.18,40.225z M55.18,75.617h-33.49l0.004-0.012l-1.258-0.072  c-7.313-0.422-13.043-6.464-13.043-13.753c0-7.36,5.784-13.408,13.169-13.767l0.904-0.044l0.093-0.901  c0.729-7.086,6.613-12.428,13.69-12.428c5.476,0,10.442,3.249,12.654,8.277l0.406,0.92l0.937-0.359  c1.977-0.758,3.975-1.142,5.936-1.142c9.175,0,16.641,7.466,16.641,16.642C71.821,68.152,64.355,75.617,55.18,75.617z"></path>
  </g>
  <g id="SvgjsG1399" featurekey="UxBHKT-0" transform="matrix(0.8008970007301879,0,0,0.8008970007301879,244.91991029873356,63.091622544781295)" fill="#40514e">
    <path d="M0.1 9.04 l3.18 0 l1.84 4.88 l2.66 -5.48 l2.7 5.5 l1.9 -4.9 l3.16 0 l-4.72 11.42 l-3.04 -5.84 l-3 5.84 z M25.240000000000002 18.9 q-0.38 0.52 -1.31 0.93 t-2.03 0.41 q-1.7 0 -2.95 -0.76 t-1.91 -2.07 t-0.66 -2.91 t0.66 -2.91 t1.91 -2.07 t2.95 -0.76 q1.14 0 2.01 0.39 t1.33 0.99 l0 -1.14 l2.96 0 l0 11 l-2.96 0 l0 -1.1 z M24.54 12.25 q-0.82 -0.87 -2.2 -0.87 q-1.4 0 -2.21 0.87 t-0.81 2.25 q0 1.34 0.83 2.22 t2.19 0.88 q1.4 0 2.21 -0.83 t0.81 -2.27 q0 -1.38 -0.82 -2.25 z M39.5 18.9 q-0.38 0.52 -1.31 0.93 t-2.03 0.41 q-1.7 0 -2.95 -0.76 t-1.91 -2.07 t-0.66 -2.91 t0.66 -2.91 t1.91 -2.07 t2.95 -0.76 q1.14 0 2.01 0.39 t1.33 0.99 l0 -5.26 l2.96 0 l0 15.12 l-2.96 0 l0 -1.1 z M38.8 12.25 q-0.82 -0.87 -2.2 -0.87 q-1.4 0 -2.21 0.87 t-0.81 2.25 q0 1.34 0.83 2.22 t2.19 0.88 q1.4 0 2.21 -0.83 t0.81 -2.27 q0 -1.38 -0.82 -2.25 z M48.23 19.74 q-1.37 -0.54 -2.35 -1.83 t-0.98 -3.37 t0.99 -3.36 t2.37 -1.82 t2.62 -0.54 q1.44 0 2.74 0.64 t2.13 1.88 t0.87 2.94 q0 0.52 -0.02 0.9 t-0.04 0.48 l-8.68 0 q0.24 1.16 1.2 1.58 t1.8 0.42 q1.08 0 1.72 -0.39 t1.1 -0.89 l2.32 1.34 q-1.88 2.56 -5.14 2.56 q-1.28 0 -2.65 -0.54 z M48.839999999999996 12.05 q-0.78 0.61 -0.88 1.49 l5.5 0 q-0.06 -0.52 -0.4 -1 t-0.91 -0.79 t-1.29 -0.31 q-1.24 0 -2.02 0.61 z M58.419999999999995 18.54 l1.56 -2.08 q0.72 0.5 1.68 0.84 t1.88 0.34 q0.68 0 1.13 -0.28 t0.45 -0.7 t-0.51 -0.59 t-0.99 -0.24 t-0.62 -0.09 q-1.2 -0.2 -2.07 -0.48 t-1.58 -1 t-0.71 -1.98 q0 -2.08 1.51 -2.78 t3.03 -0.7 q1.3 0 2.4 0.38 t2.18 1.2 l-1.56 2.04 q-0.78 -0.46 -1.54 -0.74 t-1.58 -0.28 q-0.5 0 -0.97 0.22 t-0.47 0.6 q0 0.48 0.65 0.68 t1.43 0.3 q1.4 0.24 2.24 0.5 t1.49 0.97 t0.65 2.01 q0 1.72 -1.18 2.65 t-3.34 0.93 q-3 0 -5.16 -1.72 z M75.19999999999999 9.04 l3.18 0 l1.84 4.88 l2.66 -5.48 l2.7 5.5 l1.9 -4.9 l3.16 0 l-4.72 11.42 l-3.04 -5.84 l-3 5.84 z M94.45 19.49 q-1.37 -0.77 -2.17 -2.09 t-0.8 -2.88 q0 -1.54 0.8 -2.86 t2.17 -2.09 t2.99 -0.77 t3 0.77 t2.19 2.09 t0.81 2.86 q0 1.56 -0.81 2.88 t-2.19 2.09 t-3 0.77 t-2.99 -0.77 z M95.92 11.83 q-0.7 0.41 -1.1 1.12 t-0.4 1.57 q0 0.9 0.39 1.61 t1.08 1.12 t1.55 0.41 q0.84 0 1.53 -0.41 t1.09 -1.13 t0.4 -1.6 q0 -0.86 -0.4 -1.57 t-1.09 -1.12 t-1.53 -0.41 q-0.82 0 -1.52 0.41 z M111.12 11.87 q-0.86 0.21 -1.58 0.99 t-0.72 2.28 l0 4.86 l-2.98 0 l0 -11 l2.98 0 l0 1.46 q0.74 -0.98 1.81 -1.33 t1.95 -0.33 l0 2.92 q-0.6 -0.06 -1.46 0.15 z M117.38000000000001 4.880000000000001 l0 8.8 l3.74 -4.62 l3.66 0 l-4.42 5.12 l4.6 5.82 l-3.62 0 l-2.88 -3.6 l-1.08 1.24 l0 2.36 l-3 0 l0 -15.12 l3 0 z"></path>
  </g>
</svg>