<?xml version="1.0" standalone="no"?>
<!DOCTYPE svg PUBLIC "-//W3C//DTD SVG 20010904//EN"
 "http://www.w3.org/TR/2001/REC-SVG-20010904/DTD/svg10.dtd">
<svg version="1.0" xmlns="http://www.w3.org/2000/svg"
 width="500.000000pt" height="500.000000pt" viewBox="0 0 500.000000 500.000000"
 preserveAspectRatio="xMidYMid meet">
<metadata>
Created by potrace 1.14, written by Peter Selinger 2001-2017
</metadata>
<g transform="translate(0.000000,500.000000) scale(0.100000,-0.100000)"
fill="#000000" stroke="none">
<path d="M2915 4488 c-96 -34 -151 -114 -190 -278 -2 -8 -4 -15 -5 -15 -1 0
-3 -7 -5 -15 -1 -8 -48 -175 -104 -370 -56 -195 -103 -362 -105 -370 -2 -8 -6
-22 -9 -30 -3 -8 -18 -58 -33 -110 -14 -52 -42 -149 -60 -215 -19 -66 -37
-128 -39 -138 -2 -10 -15 -55 -29 -100 -13 -45 -31 -107 -39 -137 -8 -30 -63
-221 -122 -425 -58 -203 -108 -381 -111 -394 -3 -14 -7 -28 -10 -33 -3 -4 -7
-16 -9 -27 -2 -10 -13 -51 -26 -92 -12 -41 -23 -78 -25 -84 -3 -17 -95 -338
-105 -370 -5 -16 -28 -95 -50 -175 -23 -80 -52 -183 -65 -230 -42 -149 -30
-225 52 -307 56 -56 97 -73 182 -73 68 0 132 30 180 85 29 33 45 66 66 137 15
51 33 109 39 128 6 19 12 40 13 45 1 6 66 233 144 505 78 272 143 502 145 510
6 25 293 1030 315 1101 12 37 23 75 25 85 2 11 43 154 90 319 48 165 89 309
92 320 18 67 96 338 109 380 41 131 28 227 -43 305 -64 72 -176 100 -268 68z"/>
<path d="M1065 3620 c-16 -4 -43 -14 -59 -22 -51 -27 -955 -938 -981 -988 -31
-61 -32 -159 -2 -218 14 -27 183 -204 466 -487 244 -245 457 -456 471 -469 54
-47 86 -58 176 -59 74 -1 134 30 187 96 57 70 69 184 30 262 -11 21 -183 201
-383 401 l-363 364 366 367 c323 323 369 372 385 417 34 93 18 183 -43 253
-64 73 -155 103 -250 83z"/>
<path d="M3809 3620 c-72 -20 -141 -83 -168 -155 -23 -62 -20 -148 7 -200 10
-21 182 -201 382 -401 l364 -364 -364 -364 c-203 -203 -372 -380 -383 -402
-29 -54 -28 -164 1 -219 49 -94 120 -137 227 -139 59 0 78 4 115 26 58 34 959
935 985 985 26 50 27 172 2 223 -10 20 -227 246 -487 505 -342 342 -481 475
-511 489 -45 19 -127 27 -170 16z"/>
</g>
</svg>
